<?xml version="1.0" encoding="utf-8"?>
<!-- Generator: Adobe Illustrator 16.0.0, SVG Export Plug-In . SVG Version: 6.00 Build 0)  -->
<!DOCTYPE svg PUBLIC "-//W3C//DTD SVG 1.1//EN" "http://www.w3.org/Graphics/SVG/1.1/DTD/svg11.dtd">
<svg version="1.1" id="Layer_1" xmlns="http://www.w3.org/2000/svg" xmlns:xlink="http://www.w3.org/1999/xlink" x="0px" y="0px"
	 width="380px" height="100px" viewBox="0 0 380 100" enable-background="new 0 0 380 100" xml:space="preserve">
<g>
	<g>
		<line fill="none" stroke="#FFFFFF" stroke-width="3.1431" x1="172.673" y1="60.015" x2="377.156" y2="60.015"/>
		<polygon fill="#FFFFFF" points="173.8,69.447 186.182,69.447 186.182,71.945 176.803,71.945 176.803,79.585 185.468,79.585 
			185.468,82.044 176.803,82.044 176.803,92.466 173.8,92.466 		"/>
		<path fill="#FFFFFF" d="M190.959,84.711c0.068,4.057,2.628,5.728,5.631,5.728c2.158,0,3.481-0.368,4.573-0.816l0.545,2.121
			c-1.055,0.478-2.899,1.056-5.529,1.056c-5.05,0-8.114-3.383-8.114-8.333c0-5.012,2.963-8.932,7.777-8.932
			c5.398,0,6.794,4.741,6.794,7.778c0,0.617-0.024,1.092-0.104,1.43L190.959,84.711z M199.739,82.56
			c0.027-1.877-0.796-4.887-4.142-4.887c-3.062,0-4.363,2.797-4.601,4.887H199.739z"/>
		<path fill="#FFFFFF" d="M206.388,81.091c0-1.943-0.033-3.616-0.138-5.153h2.632l0.134,3.245h0.103
			c0.754-2.229,2.592-3.619,4.611-3.619c0.296,0,0.542,0.03,0.819,0.097v2.801c-0.345-0.027-0.646-0.066-1.062-0.066
			c-2.117,0-3.615,1.605-4.033,3.82c-0.062,0.45-0.099,0.919-0.099,1.435v8.816h-3.001L206.388,81.091z"/>
		<path fill="#FFFFFF" d="M221.95,71.979v3.958h4.301v2.283h-4.301v8.913c0,2.055,0.578,3.208,2.255,3.208
			c0.808,0,1.286-0.079,1.73-0.21l0.146,2.293c-0.591,0.201-1.504,0.414-2.664,0.414c-1.396,0-2.529-0.48-3.243-1.272
			c-0.821-0.92-1.161-2.378-1.161-4.336v-9.01h-2.563v-2.283h2.563v-3.035L221.95,71.979z"/>
		<path fill="#FFFFFF" d="M231.057,72.902c-1.121,0-1.87-0.884-1.87-1.949c0-1.056,0.783-1.911,1.95-1.911
			c1.155,0,1.904,0.855,1.904,1.911c0,1.065-0.749,1.949-1.946,1.949H231.057z M229.631,92.466V75.938h3.001v16.528H229.631z"/>
		<rect x="237.61" y="68.225" fill="#FFFFFF" width="3.007" height="24.241"/>
		<path fill="#FFFFFF" d="M247.034,72.902c-1.126,0-1.877-0.884-1.877-1.949c0-1.056,0.784-1.911,1.946-1.911
			c1.155,0,1.912,0.855,1.912,1.911c0,1.065-0.757,1.949-1.943,1.949H247.034z M245.598,92.466V75.938h3.003v16.528H245.598z"/>
		<path fill="#FFFFFF" d="M257.208,71.979v3.958h4.3v2.283h-4.3v8.913c0,2.055,0.577,3.208,2.254,3.208
			c0.813,0,1.296-0.079,1.737-0.21l0.136,2.293c-0.577,0.201-1.498,0.414-2.663,0.414c-1.404,0-2.521-0.48-3.246-1.272
			c-0.821-0.92-1.16-2.378-1.16-4.336v-9.01h-2.559v-2.283h2.559v-3.035L257.208,71.979z"/>
		<path fill="#FFFFFF" d="M266.272,75.938l3.588,9.754c0.408,1.097,0.819,2.402,1.085,3.381h0.073
			c0.31-0.979,0.657-2.247,1.057-3.435l3.279-9.7h3.166l-4.496,11.771c-2.149,5.664-3.619,8.565-5.665,10.382
			c-1.506,1.258-2.933,1.774-3.693,1.91l-0.741-2.531c0.741-0.194,1.735-0.673,2.622-1.467c0.821-0.648,1.812-1.804,2.529-3.339
			c0.138-0.305,0.24-0.518,0.24-0.717c0-0.167-0.069-0.414-0.24-0.749l-6.075-15.26H266.272z"/>
		<path fill="#FFFFFF" d="M304.631,91.743c-1.051,0.534-3.27,1.096-6.068,1.096c-6.482,0-11.329-4.09-11.329-11.678
			c0-7.238,4.884-12.078,12.009-12.078c2.845,0,4.684,0.613,5.459,1.016l-0.741,2.419c-1.094-0.538-2.708-0.949-4.618-0.949
			c-5.396,0-8.972,3.445-8.972,9.482c0,5.681,3.245,9.25,8.805,9.25c1.844,0,3.691-0.372,4.89-0.949L304.631,91.743z"/>
		<path fill="#FFFFFF" d="M309.586,84.711c0.059,4.057,2.628,5.728,5.631,5.728c2.148,0,3.482-0.368,4.576-0.816l0.547,2.121
			c-1.064,0.478-2.904,1.056-5.527,1.056c-5.052,0-8.125-3.383-8.125-8.333c0-5.012,2.957-8.932,7.775-8.932
			c5.396,0,6.798,4.741,6.798,7.778c0,0.617-0.024,1.092-0.108,1.43L309.586,84.711z M318.358,82.56
			c0.032-1.877-0.789-4.887-4.13-4.887c-3.074,0-4.371,2.797-4.601,4.887H318.358z"/>
		<path fill="#FFFFFF" d="M324.981,80.411c0-1.746-0.046-3.11-0.143-4.474h2.666l0.171,2.686h0.067
			c0.816-1.521,2.731-3.06,5.467-3.06c2.278,0,5.828,1.371,5.828,7.026v9.876h-2.995v-9.531c0-2.659-0.993-4.913-3.821-4.913
			c-1.947,0-3.486,1.398-4.037,3.069c-0.129,0.38-0.196,0.913-0.196,1.396v9.979h-3.007V80.411z"/>
		<path fill="#FFFFFF" d="M347.405,71.979v3.958h4.304v2.283h-4.304v8.913c0,2.055,0.579,3.208,2.247,3.208
			c0.818,0,1.302-0.079,1.744-0.21l0.134,2.293c-0.576,0.201-1.493,0.414-2.649,0.414c-1.4,0-2.531-0.48-3.245-1.272
			c-0.816-0.92-1.167-2.378-1.167-4.336v-9.01h-2.558v-2.283h2.558v-3.035L347.405,71.979z"/>
		<path fill="#FFFFFF" d="M355.121,81.091c0-1.943-0.041-3.616-0.142-5.153h2.632l0.125,3.245h0.117
			c0.746-2.229,2.594-3.619,4.609-3.619c0.304,0,0.542,0.03,0.808,0.097v2.801c-0.337-0.027-0.65-0.066-1.059-0.066
			c-2.11,0-3.612,1.605-4.024,3.82c-0.067,0.45-0.089,0.919-0.089,1.435v8.816h-3.019L355.121,81.091z"/>
		<path fill="#FFFFFF" d="M367.751,84.711c0.066,4.057,2.628,5.728,5.635,5.728c2.152,0,3.479-0.368,4.576-0.816l0.547,2.121
			c-1.06,0.478-2.908,1.056-5.54,1.056c-5.039,0-8.117-3.383-8.117-8.333c0-5.012,2.966-8.932,7.788-8.932
			c5.385,0,6.786,4.741,6.786,7.778c0,0.617-0.033,1.092-0.104,1.43L367.751,84.711z M376.531,82.56
			c0.028-1.877-0.793-4.887-4.138-4.887c-3.065,0-4.367,2.797-4.601,4.887H376.531z"/>
		<path fill="#FFFFFF" d="M208.799,45.727c-1.949,1.007-6.034,2.012-11.189,2.012c-11.943,0-20.87-7.545-20.87-21.5
			c0-13.327,8.989-22.253,22.127-22.253c5.219,0,8.613,1.131,10.059,1.886l-1.384,4.463c-2.011-1.008-4.966-1.761-8.485-1.761
			c-9.933,0-16.533,6.351-16.533,17.475c0,10.436,5.972,17.037,16.219,17.037c3.395,0,6.789-0.691,8.989-1.761L208.799,45.727z"/>
		<path fill="#FFFFFF" d="M215.714,5.306c2.765-0.565,6.788-0.942,10.497-0.942c5.846,0,9.681,1.131,12.321,3.521
			c2.073,1.823,3.331,4.713,3.331,8.046c0,5.531-3.583,9.239-7.983,10.749v0.188c3.206,1.132,5.154,4.15,6.224,8.55
			c1.382,5.908,2.389,9.994,3.205,11.628h-5.656c-0.692-1.192-1.635-4.84-2.767-10.121c-1.257-5.845-3.583-8.046-8.549-8.235h-5.155
			v18.356h-5.468V5.306z M221.182,24.542h5.595c5.847,0,9.556-3.206,9.556-8.046c0-5.471-3.96-7.858-9.744-7.858
			c-2.64,0-4.463,0.252-5.406,0.502V24.542z"/>
		<path fill="#FFFFFF" d="M252.671,32.777c0.124,7.479,4.841,10.562,10.373,10.562c3.959,0,6.411-0.693,8.422-1.51l1.006,3.898
			c-1.947,0.88-5.344,1.95-10.184,1.95c-9.304,0-14.961-6.223-14.961-15.339c0-9.241,5.468-16.469,14.332-16.469
			c9.932,0,12.511,8.738,12.511,14.332c0,1.13-0.062,2.011-0.189,2.64L252.671,32.777z M268.826,28.817
			c0.062-3.458-1.447-8.99-7.605-8.99c-5.658,0-8.048,5.155-8.487,8.99H268.826z"/>
		<path fill="#FFFFFF" d="M288.062,33.721l-4.4,13.326h-5.657l14.394-42.369H299l14.457,42.369h-5.846l-4.528-13.326H288.062z
			 M301.953,29.445l-4.213-12.196c-0.88-2.765-1.508-5.28-2.136-7.731h-0.188c-0.567,2.451-1.259,5.091-2.077,7.668l-4.146,12.259
			H301.953z"/>
		<polygon fill="#FFFFFF" points="322.769,9.328 309.882,9.328 309.882,4.678 341.251,4.678 341.251,9.328 328.302,9.328 
			328.302,47.046 322.769,47.046 		"/>
		<path fill="#FFFFFF" d="M344.898,32.777c0.124,7.479,4.841,10.562,10.373,10.562c3.958,0,6.411-0.693,8.421-1.51l1.006,3.898
			c-1.948,0.88-5.344,1.95-10.182,1.95c-9.306,0-14.961-6.223-14.961-15.339c0-9.241,5.467-16.469,14.331-16.469
			c9.931,0,12.509,8.738,12.509,14.332c0,1.13-0.062,2.011-0.188,2.64L344.898,32.777z M361.053,28.817
			c0.062-3.458-1.446-8.99-7.604-8.99c-5.659,0-8.048,5.155-8.487,8.99H361.053z"/>
	</g>
	<g>
		<g>
			<defs>
				<path id="SVGID_1_" d="M96.589,48.007c0,26.514-21.491,48.006-48.008,48.006c-26.511,0-48.007-21.492-48.007-48.006
					C0.574,21.494,22.07,0,48.581,0C75.098,0,96.589,21.494,96.589,48.007z"/>
			</defs>
			<clipPath id="SVGID_2_">
				<use xlink:href="#SVGID_1_"  overflow="visible"/>
			</clipPath>
			
				<radialGradient id="SVGID_3_" cx="101.6494" cy="201.2168" r="2.5887" gradientTransform="matrix(33.3834 0 0 -33.3834 -3359.5 6740.5312)" gradientUnits="userSpaceOnUse">
				<stop  offset="0" style="stop-color:#FFFFFF"/>
				<stop  offset="0.0355" style="stop-color:#ECF2F4"/>
				<stop  offset="0.0954" style="stop-color:#D1DFE6"/>
				<stop  offset="0.1566" style="stop-color:#BED2DB"/>
				<stop  offset="0.2195" style="stop-color:#B3CBD5"/>
				<stop  offset="0.2865" style="stop-color:#AFC8D3"/>
				<stop  offset="0.6966" style="stop-color:#5D9DB0"/>
				<stop  offset="1" style="stop-color:#97BBC9"/>
			</radialGradient>
			<rect x="0.574" clip-path="url(#SVGID_2_)" fill="url(#SVGID_3_)" width="96.015" height="96.014"/>
		</g>
		<g>
			<path fill="#007B90" d="M48.581,2.585c25.046,0,45.422,20.376,45.422,45.422s-20.376,45.42-45.422,45.42
				c-25.045,0-45.421-20.375-45.421-45.42S23.536,2.585,48.581,2.585 M48.581,0C22.07,0,0.574,21.494,0.574,48.007
				c0,26.514,21.496,48.006,48.007,48.006c26.517,0,48.008-21.492,48.008-48.006C96.589,21.494,75.098,0,48.581,0L48.581,0z"/>
		</g>
		<path fill="#FFFFFF" d="M161.852,17.515c-12.096,0-24.798,8.639-24.798,20.811c0,18.029,27.033,35.254,19.212,45.682
			c-8.497,11.332-22.954-2.484-33.777-8.776c-11.434-6.649-32.106-6.57-48.936-5.586l-0.53,3.456c10.3-0.512,39.732-0.46,50,7.182
			c14.431,10.744,28.458,18.06,36.441,4.662c7.986-13.393-19.828-30.651-20.089-46.619c-0.194-12.172,9.851-21.077,21.941-21.077"/>
		<path fill="none" stroke="#007B90" stroke-width="1.2929" d="M161.852,17.515c-12.096,0-24.798,8.639-24.798,20.811
			c0,18.029,27.033,35.254,19.212,45.682c-8.497,11.332-22.954-2.484-33.777-8.776c-11.434-6.649-32.106-6.57-48.936-5.586
			l-0.53,3.456c10.3-0.512,39.732-0.46,50,7.182c14.431,10.744,28.458,18.06,36.441,4.662c7.986-13.393-19.828-30.651-20.089-46.619
			c-0.194-12.172,9.851-21.077,21.941-21.077"/>
		<path fill="#FFFFFF" d="M76.744,70.64c0,4.543-3.676,8.232-12.388,8.232c-8.711,0-15.775-3.689-15.775-8.232
			c0-4.546,7.064-8.229,15.775-8.229C73.068,62.41,76.744,66.094,76.744,70.64z"/>
		<path fill="none" stroke="#007A8F" stroke-width="1.2929" d="M76.744,70.64c0,4.543-3.676,8.232-12.388,8.232
			c-8.711,0-15.775-3.689-15.775-8.232c0-4.546,7.064-8.229,15.775-8.229C73.068,62.41,76.744,66.094,76.744,70.64z"/>
	</g>
</g>
</svg>
